<svg xmlns="http://www.w3.org/2000/svg" width="1600" height="900" viewBox="0 0 1600 900" role="img"><rect width="1600" height="900" fill="#101820"/><text x="70" y="85" font-family="Arial" font-size="48" font-weight="700" fill="#F5F7FA">MycEvo technical architecture</text><g font-family="Arial" text-anchor="middle"><g fill="#182630" stroke="#36C2A6" stroke-width="2"><rect x="60" y="230" width="250" height="100" rx="9"/><rect x="370" y="230" width="220" height="100" rx="9"/><rect x="650" y="230" width="250" height="100" rx="9"/><rect x="970" y="180" width="500" height="200" rx="9"/><rect x="1030" y="500" width="210" height="90" rx="9"/><rect x="1030" y="650" width="210" height="90" rx="9"/><rect x="1310" y="650" width="220" height="90" rx="9"/></g><g fill="#F5F7FA" font-size="20"><text x="185" y="275">Codex / Claude</text><text x="185" y="304">Cursor</text><text x="480" y="290">CLI / stdio MCP</text><text x="775" y="290">Shared MycEvo Core</text><text x="1220" y="230">Private Research Workspace</text><text x="1220" y="275">Registry · Retrieval · Provenance</text><text x="1220" y="310">Validators · Claims · Artifacts</text><text x="1135" y="555">Candidate</text><text x="1135" y="692">Evidence gate</text><text x="1420" y="692">Human promotion</text></g><path d="M310 280H360M590 280H640M900 280H960M1135 380V490M1135 590V640M1240 695H1300" stroke="#36C2A6" stroke-width="6"/><path d="M1420 750C1420 820 775 820 775 340" fill="none" stroke="#F97352" stroke-width="4" stroke-dasharray="10 8"/></g></svg>
