<svg xmlns="http://www.w3.org/2000/svg" width="1600" height="900" viewBox="0 0 1600 900" role="img" aria-labelledby="t d"><title id="t">MycEvo product loop</title><desc id="d">Evidence-gated paper-to-paper workflow inheritance.</desc><rect width="1600" height="900" fill="#F7FAFC"/><g font-family="Arial" fill="#17212B"><text x="80" y="90" font-size="54" font-weight="700">MycEvo</text><text x="80" y="132" font-size="22" fill="#52606D">Evidence-governed workflow evolution</text></g><g font-family="Arial" text-anchor="middle"><path d="M190 405H1380" stroke="#1B8A78" stroke-width="8"/><path d="M1380 405C1480 405 1480 690 1260 690H300C120 690 110 540 190 470" fill="none" stroke="#E76F51" stroke-width="5" stroke-dasharray="12 10"/><g fill="#fff" stroke="#22313F" stroke-width="2"><rect x="70" y="330" width="220" height="150" rx="10"/><rect x="320" y="330" width="220" height="150" rx="10"/><rect x="570" y="330" width="220" height="150" rx="10"/><rect x="820" y="330" width="220" height="150" rx="10"/><rect x="1070" y="330" width="220" height="150" rx="10"/><rect x="1320" y="330" width="220" height="150" rx="10"/></g><g fill="#17212B" font-size="21"><text x="180" y="390">Real research</text><text x="180" y="420">tasks</text><text x="430" y="390">Evidence</text><text x="430" y="420">capture</text><text x="680" y="382">Candidate workflow</text><text x="680" y="415">memory</text><text x="930" y="390">Validation</text><text x="930" y="420">gate</text><text x="1180" y="382">Reusable</text><text x="1180" y="415">workflow</text><text x="1430" y="390">Next paper</text></g><text x="800" y="720" fill="#B45309" font-size="22">Feedback loop: real use produces evidence, never silent promotion</text></g><g font-family="Arial" fill="#1B8A78"><circle cx="370" cy="230" r="9"/><circle cx="440" cy="195" r="7"/><circle cx="510" cy="245" r="8"/><path d="M370 230L440 195L510 245" stroke="#1B8A78" stroke-width="3" fill="none"/></g></svg>
